<svg width="512" height="512" viewBox="0 0 512 512" fill="none" xmlns="http://www.w3.org/2000/svg">
<path d="M420.404 0H91.596C41.09 0 0 41.09 0 91.596V420.405C0 470.91 41.09 512 91.596 512H420.405C470.91 512 512 470.91 512 420.404V91.596C512 41.09 470.91 0 420.404 0ZM482 420.404C482 454.368 454.368 482 420.404 482H91.596C57.632 482 30 454.368 30 420.404V91.596C30 57.632 57.632 30 91.596 30H420.405C454.368 30 482 57.632 482 91.596V420.404Z" fill="#3D80E4"/>
<path d="M432.733 112.467H204.272C197.991 93.812 180.346 80.334 159.6 80.334C138.854 80.334 121.209 93.812 114.928 112.467H79.2671C70.9831 112.467 64.2671 119.183 64.2671 127.467C64.2671 135.751 70.9831 142.467 79.2671 142.467H114.929C121.21 161.122 138.855 174.6 159.601 174.6C180.347 174.6 197.992 161.122 204.273 142.467H432.734C441.018 142.467 447.734 135.751 447.734 127.467C447.734 119.183 441.018 112.467 432.733 112.467V112.467ZM159.6 144.6C150.153 144.6 142.467 136.914 142.467 127.467C142.467 118.02 150.153 110.334 159.6 110.334C169.047 110.334 176.733 118.02 176.733 127.467C176.733 136.914 169.047 144.6 159.6 144.6Z" fill="#3D80E4"/>
<path d="M432.733 241H397.071C390.79 222.345 373.144 208.867 352.399 208.867C331.654 208.867 314.009 222.345 307.728 241H79.2671C70.9831 241 64.2671 247.716 64.2671 256C64.2671 264.284 70.9831 271 79.2671 271H307.728C314.009 289.655 331.655 303.133 352.4 303.133C373.145 303.133 390.791 289.655 397.072 271H432.734C441.018 271 447.734 264.284 447.734 256C447.734 247.716 441.018 241 432.733 241ZM352.4 273.133C342.953 273.133 335.267 265.447 335.267 256C335.267 246.553 342.953 238.867 352.4 238.867C361.847 238.867 369.533 246.553 369.533 256C369.533 265.447 361.847 273.133 352.4 273.133Z" fill="#3D80E4"/>
<path d="M432.733 369.533H268.539C262.258 350.878 244.613 337.4 223.867 337.4C203.121 337.4 185.476 350.878 179.195 369.533H79.2671C70.9831 369.533 64.2671 376.249 64.2671 384.533C64.2671 392.817 70.9831 399.533 79.2671 399.533H179.195C185.476 418.188 203.121 431.666 223.867 431.666C244.613 431.666 262.258 418.188 268.539 399.533H432.734C441.018 399.533 447.734 392.817 447.734 384.533C447.734 376.249 441.018 369.533 432.733 369.533ZM223.867 401.667C214.42 401.667 206.734 393.981 206.734 384.534C206.734 375.087 214.42 367.401 223.867 367.401C233.314 367.401 241 375.086 241 384.533C241 393.98 233.314 401.667 223.867 401.667V401.667Z" fill="#3D80E4"/>
</svg>
