<svg width="65" height="65" viewBox="0 0 65 65" fill="none" xmlns="http://www.w3.org/2000/svg">
<path d="M60.9375 6.31018H4.0625C1.8226 6.31018 0 8.13018 0 10.3727V46.9352C0 49.1777 1.8226 50.9977 4.0625 50.9977H27.3468C26.4615 49.4468 25.3747 47.45 24.0227 44.9033H6.0944V12.4033H58.9069V44.9033H56.2263V49.2882C56.2263 49.4273 56.2068 50.0799 56.0599 50.9951H60.9375C63.1774 50.9951 65 49.1738 65 46.9326V10.3727C65 8.13018 63.1774 6.31018 60.9375 6.31018ZM61.9333 30.6852C60.8088 30.6852 59.9027 29.7765 59.9027 28.6546C59.9027 27.5327 60.8088 26.6227 61.9333 26.6227C63.0526 26.6227 63.9639 27.534 63.9639 28.6546C63.9639 29.7752 63.0526 30.6852 61.9333 30.6852Z" fill="#3D80E4"/>
<path d="M50.7676 29.1278H50.5388C49.2076 29.1278 48.1234 30.2094 48.1234 31.538V33.6934H47.827V31.538C47.827 30.2081 46.7402 29.1278 45.4142 29.1278H45.1776C43.8503 29.1278 42.7674 30.2094 42.7674 31.538V33.6934H42.4684V31.538C42.4684 30.2081 41.3842 29.1278 40.0582 29.1278H39.819C38.493 29.1278 37.4088 30.2094 37.4088 31.538V33.6934H37.2515V19.9212C37.2515 18.5835 36.1686 17.4954 34.8257 17.4954L34.5904 17.4941C33.2553 17.4941 32.1685 18.5822 32.1685 19.9212V40.9929C31.5211 40.2623 30.9517 39.5174 30.4304 38.8453C29.2708 37.3451 28.3595 36.1569 27.3299 35.9203C26.1872 35.6486 25.1316 36.0295 24.6233 36.8537C24.1462 37.6376 24.219 38.7166 24.8222 39.8866C26.143 42.4125 32.4883 53.5093 32.4922 53.5093C32.994 54.7235 35.2079 58.6911 42.6621 58.6911V58.4259L42.6699 58.6911C48.0909 58.6911 50.6584 56.1327 51.8583 53.9877C53.1531 51.6711 53.1739 49.3883 53.1739 49.2895V31.538C53.1791 30.2068 52.091 29.1278 50.7676 29.1278Z" fill="#3D80E4"/>
</svg>
