<svg width="64" height="64" viewBox="0 0 64 64" fill="none" xmlns="http://www.w3.org/2000/svg">
<g clip-path="url(#clip0)">
<path d="M56.4779 18.8434V26.8284L61.549 23.0613L56.4779 18.8434Z" fill="#3D80E4"/>
<path d="M35.0829 1.11882C33.2959 -0.362247 30.7041 -0.378345 28.9171 1.10273L26.8726 2.84138H37.1596L35.0829 1.11882Z" fill="#3D80E4"/>
<path d="M36.8054 45.4705C35.421 46.5008 33.7467 47.0643 32.0242 47.0482C30.3016 47.0482 28.6113 46.5008 27.2268 45.4705L1.58169 26.3293V59.1543C1.5656 61.8106 3.70671 63.9839 6.36298 64H57.637C60.2933 63.9839 62.4344 61.8106 62.4183 59.1543V26.3293L36.8054 45.4705Z" fill="#3D80E4"/>
<path d="M2.4671 23.0612L7.37718 26.7156V18.9883L2.4671 23.0612Z" fill="#3D80E4"/>
<path d="M10.5969 6.0611V29.1143L29.1103 42.8947C30.8328 44.1504 33.1993 44.1504 34.9219 42.8947L53.2582 29.227V6.0611H10.5969ZM22.0269 18.94H30.7202C31.6056 18.94 32.33 19.6644 32.33 20.5498C32.33 21.4353 31.6056 22.1597 30.7202 22.1597H22.0269C21.1415 22.1597 20.4171 21.4353 20.4171 20.5498C20.4171 19.6644 21.1415 18.94 22.0269 18.94ZM41.9892 30.209H22.0269C21.1415 30.209 20.4171 29.4846 20.4171 28.5991C20.4171 27.7137 21.1415 26.9893 22.0269 26.9893H41.9892C42.8746 26.9893 43.599 27.7137 43.599 28.5991C43.599 29.4846 42.8746 30.209 41.9892 30.209Z" fill="#3D80E4"/>
</g>
<defs>
<clipPath id="clip0">
<rect width="64" height="64" fill="white"/>
</clipPath>
</defs>
</svg>
