<svg width="68" height="68" viewBox="0 0 68 68" fill="none" xmlns="http://www.w3.org/2000/svg">
<path d="M56.5612 28.0125C56.5629 27.9165 56.5649 27.8207 56.5649 27.7243C56.5649 18.5468 49.125 11.1069 39.9475 11.1069C32.0385 11.1069 25.4209 16.6322 23.7421 24.0333C22.1768 23.157 20.3737 22.6552 18.4521 22.6552C12.4565 22.6552 7.5962 27.5157 7.5962 33.5112C7.5962 33.7562 7.60723 33.9984 7.6232 34.2395C3.17214 35.8918 0 40.1761 0 45.2022C0 51.659 5.2343 56.8933 11.6911 56.8933H53.3861C61.4571 56.8933 68 50.3504 68 42.2794C68 35.2988 63.1054 29.4624 56.5612 28.0125Z" fill="#3D80E4"/>
</svg>
