<svg width="68" height="61" viewBox="0 0 68 61" fill="none" xmlns="http://www.w3.org/2000/svg">
<path d="M60.7143 0.285706H53.4286V10C53.4286 11.3413 52.3413 12.4286 51 12.4286C49.6587 12.4286 48.5713 11.3413 48.5713 10V0.285706H19.4285V10C19.4285 11.3413 18.3412 12.4286 16.9999 12.4286C15.6586 12.4286 14.5713 11.3413 14.5713 10V0.285706H7.28571C3.26192 0.285706 0 3.54763 0 7.57141V53.7143C0 57.7381 3.26192 61 7.28571 61H60.7143C64.7381 61 68 57.7381 68 53.7143V7.57141C68 3.54763 64.7381 0.285706 60.7143 0.285706ZM63.1428 53.7143C63.1428 55.0556 62.0555 56.1429 60.7141 56.1429H7.28571C5.9444 56.1429 4.85709 55.0556 4.85709 53.7143V22.1428H63.1428V53.7143Z" fill="#3D80E4"/>
</svg>
