<svg width="66" height="66" viewBox="0 0 66 66" fill="none" xmlns="http://www.w3.org/2000/svg">
<path d="M53.1652 30.3029C50.4466 30.3029 47.8406 31.1521 45.6675 32.722V23.9461C45.6675 22.6194 44.5879 21.5399 43.261 21.5399H33.2896C34.8335 19.3777 35.6686 16.7914 35.6686 14.0991C35.6686 7.02198 29.9112 1.26434 22.8343 1.26434C15.7572 1.26434 9.99943 7.02187 9.99943 14.0991C9.99943 16.7912 10.8345 19.3776 12.3778 21.5399H2.40663C1.07962 21.5399 0 22.6194 0 23.9461V35.4168C0 35.7456 0.200588 36.0412 0.506431 36.1623C0.812382 36.2838 1.16082 36.2061 1.38622 35.9668C3.16369 34.0798 5.56524 33.0408 8.14884 33.0408C13.2738 33.0408 17.4432 37.2104 17.4432 42.3354C17.4432 47.4607 13.2738 51.6303 8.14884 51.6303C5.56524 51.6303 3.16347 50.5913 1.38622 48.7043C1.16082 48.4652 0.812382 48.3876 0.506431 48.5088C0.200588 48.6302 0 48.9256 0 49.2544V62.329C0 63.6561 1.07962 64.7355 2.40652 64.7355H43.261C44.5879 64.7355 45.6675 63.6559 45.6675 62.329V53.5532C47.8403 55.1229 50.4464 55.972 53.1652 55.972C60.2423 55.972 66 50.2145 66 43.1375C66 36.0607 60.2423 30.3029 53.1652 30.3029Z" fill="#3D80E4"/>
</svg>
