<svg width="64" height="64" viewBox="0 0 64 64" fill="none" xmlns="http://www.w3.org/2000/svg">
<g clip-path="url(#clip0)">
<path d="M50.6667 52V38.6666C50.6667 34.256 54.256 30.6666 58.6667 30.6666C60.1387 30.6666 61.3333 31.8613 61.3333 33.3333C61.3333 34.816 60.1227 36.0186 58.6347 36C57.1733 35.9813 56 37.2053 56 38.6666V46.6666C56 49.6133 53.6133 52 50.6667 52Z" fill="#3D80E4"/>
<path d="M13.3333 52V38.6666C13.3333 34.256 9.74399 30.6666 5.33332 30.6666C3.86132 30.6666 2.66666 31.8613 2.66666 33.3333C2.66666 34.816 3.87732 36.0186 5.36532 36C6.82666 35.9813 7.99999 37.2053 7.99999 38.6666V46.6666C7.99999 49.6133 10.3867 52 13.3333 52Z" fill="#3D80E4"/>
<path d="M43.3333 64H20.6667C19.1947 64 18 62.8053 18 61.3333C18 59.8613 19.1947 58.6666 20.6667 58.6666H43.3333C44.8053 58.6666 46 59.8613 46 61.3333C46 62.8053 44.8053 64 43.3333 64Z" fill="#3D80E4"/>
<path d="M32 64C30.528 64 29.3333 62.8054 29.3333 61.3334V50C29.3333 48.528 30.528 47.3334 32 47.3334C33.472 47.3334 34.6667 48.528 34.6667 50V61.3334C34.6667 62.8054 33.472 64 32 64Z" fill="#3D80E4"/>
<path d="M45.496 34.6667H18.504C17.1227 34.6667 15.8213 34.0587 14.9333 33.0027C14.0427 31.9467 13.6693 30.56 13.9067 29.2L18.312 3.86667C18.7013 1.62667 20.6347 0 22.9093 0H41.088C43.3653 0 45.2987 1.62667 45.6853 3.86933L50.0907 29.2027C50.328 30.5627 49.9547 31.9493 49.064 33.0053C48.1787 34.0587 46.8773 34.6667 45.496 34.6667Z" fill="#3D80E4"/>
<path d="M51.3333 52H12.6667C11.5627 52 10.6667 51.104 10.6667 50V44.6667C10.6667 40.6214 13.9547 37.3334 18 37.3334H46C50.0453 37.3334 53.3333 40.6214 53.3333 44.6667V50C53.3333 51.104 52.4373 52 51.3333 52Z" fill="#3D80E4"/>
</g>
<defs>
<clipPath id="clip0">
<rect width="64" height="64" fill="white"/>
</clipPath>
</defs>
</svg>
